<?xml version="1.0" encoding="iso-8859-1"?>
<!-- Generator: Adobe Illustrator 19.0.0, SVG Export Plug-In . SVG Version: 6.00 Build 0)  -->
<svg version="1.1" id="Capa_1" xmlns="http://www.w3.org/2000/svg" xmlns:xlink="http://www.w3.org/1999/xlink" x="0px" y="0px"
	 viewBox="0 0 512 512" style="enable-background:new 0 0 512 512;" xml:space="preserve">
<circle style="fill:#69739B;" cx="256" cy="256" r="256"/>
<path style="fill:#66BD6D;" d="M35.61,201.576c-3.898,0-7.189-3.012-7.472-6.961c-0.078-1.085-1.804-26.949,6.723-59.283
	c11.373-43.126,35.773-77.127,70.563-98.325c3.535-2.157,8.151-1.036,10.307,2.502c2.155,3.537,1.035,8.151-2.502,10.307
	C81.498,69.15,60.053,99.052,49.49,138.688c-7.998,30.01-6.406,54.62-6.39,54.865c0.286,4.129-2.826,7.714-6.954,8.005
	C35.967,201.57,35.788,201.576,35.61,201.576z"/>
<path style="fill:#CDF3F9;" d="M157.148,276.664c0,0,15.651-86.466,139.078-69.308c97.048,13.491,149.723-51.161,169.276-82.645
	c2.706-4.357,9.443-2.3,9.256,2.825c-0.827,22.701-5.893,61.577-28.448,94.845c0,0,21.7,56.086-36.257,90.756
	c0,0-41.163,135.367-182.861,85.145C227.193,398.28,136.973,369.484,157.148,276.664z"/>
<path style="fill:#B7E9F7;" d="M270.178,380.654c0,0-90.219-28.796-70.044-121.616c0,0,5.457-30.092,35.27-51.249
	c-68.121,12.99-78.255,68.875-78.255,68.875c-20.175,92.82,70.044,121.616,70.044,121.616c57.041,20.217,97.78,10.352,126.111-8.642
	C330.51,393.957,303.054,392.306,270.178,380.654z"/>
<path style="fill:#96DFF8;" d="M440.045,346.728c-16.793,1.324-32.39,1.667-46.893,1.192
	c-23.129,36.207-72.828,83.368-165.96,50.359c0,0-90.219-28.796-70.044-121.616c0,0,7.826-43.17,55.965-62.448
	c1.311-6.601,3.514-13.081,6.646-19.226c27.976-54.883,0.566-97.302-48.888-114.83c-46.055-16.323-79.901,16.338-90.854,28.99
	c-1.598,1.846-3.585,3.264-5.791,4.197c3.957,4.252,24.335,29.128,2.53,70.064c1.729,4.019,3.218,8.254,4.392,12.727
	c0.634,2.418,0.564,4.955-0.31,7.297c-10.152,27.199-72.655,214.951,104.978,290.54c27.085,11.526,53.213,17.012,78.157,17.89
	c109.349-3.347,201.438-75.256,234.719-174.199L440.045,346.728z"/>
<path style="fill:#80CBF0;" d="M185.817,493.974c1.511,0.643,3.018,1.261,4.524,1.867c0.391,0.157,0.783,0.313,1.173,0.468
	c1.329,0.527,2.656,1.042,3.98,1.539c0.187,0.07,0.374,0.144,0.561,0.214c1.501,0.56,2.998,1.099,4.492,1.622
	c0.342,0.12,0.683,0.236,1.024,0.354c1.286,0.444,2.57,0.876,3.852,1.294c0.248,0.081,0.497,0.165,0.746,0.245
	c1.511,0.487,3.02,0.955,4.524,1.405c0.237,0.071,0.472,0.138,0.709,0.208c1.338,0.396,2.674,0.778,4.007,1.145
	c0.244,0.067,0.488,0.136,0.732,0.203c1.543,0.42,3.084,0.823,4.62,1.206c0.048,0.012,0.096,0.023,0.144,0.035
	c1.486,0.369,2.969,0.717,4.448,1.051c0.205,0.046,0.411,0.093,0.616,0.139c3.097,0.69,6.179,1.306,9.246,1.848
	c0.143,0.025,0.285,0.05,0.427,0.075c3.127,0.546,6.238,1.018,9.332,1.416c0.058,0.008,0.117,0.015,0.175,0.022
	c6.345,0.81,12.621,1.315,18.823,1.533c7.129-0.218,14.184-0.735,21.155-1.524c-21.215-2.161-43.212-7.646-65.868-17.287
	c-166.767-70.965-126.02-238.855-110.408-286.75c3.522-10.805,2.747-22.553-2.091-32.837c-5.263-11.188-12.411-20.605-20.152-28.435
	c0.469,10.475-1.845,23.339-9.85,38.372c1.712,3.98,3.182,8.178,4.351,12.604c0.012,0.044,0.025,0.087,0.037,0.131
	c0.317,1.209,0.458,2.448,0.411,3.677c-0.024,0.615-0.094,1.227-0.214,1.832c-0.119,0.605-0.288,1.203-0.506,1.788
	c-3.569,9.562-13.609,38.968-17.409,76.368c-1.385,13.636-1.795,26.903-1.251,39.625c1.212,28.349,7.232,56.277,19.876,81.93
	C103.788,445.461,141.109,474.95,185.817,493.974z"/>
<path style="fill:#FDD36E;" d="M75.587,112.691L75.587,112.691c-1.832,0.991-3.854,1.629-5.969,1.843l-42.648,4.317
	c-5.623,0.569-7.189,8.062-2.237,10.785c17.126,9.418,41.363,27.121,52.885,55.858C103.623,139.09,75.587,112.691,75.587,112.691z"
	/>
<path style="fill:#FBB659;" d="M27.311,130.824c-0.195-0.004-0.376-0.037-0.563-0.057c16.965,9.673,39.792,27.098,50.87,54.727
	c8.285-14.784,11.08-27.534,11.049-38.05C67.516,134.365,43.802,131.156,27.311,130.824z"/>
<circle style="fill:#69739B;" cx="145.19" cy="136.38" r="22.557"/>
<path style="fill:#505E93;" d="M154.254,145.283c-11.086-5.683-15.467-19.277-9.784-30.363c0.191-0.373,0.393-0.737,0.602-1.095
	c-8.143,0.051-15.979,4.518-19.95,12.266c-5.683,11.086-1.302,24.68,9.784,30.363c10.713,5.491,23.767,1.584,29.761-8.689
	C161.158,147.786,157.593,146.994,154.254,145.283z"/>
<path style="fill:#58AF5C;" d="M5.387,58.072c-2.524,0.397-4.507,2.38-4.904,4.904C-1.412,75.014,2.27,87.758,11.546,97.034
	s22.02,12.959,34.058,11.064c2.524-0.397,4.507-2.381,4.904-4.904c1.895-12.037-1.788-24.781-11.064-34.057
	C30.168,59.86,17.424,56.177,5.387,58.072z"/>
<path style="fill:#469B46;" d="M28.678,83.017c-6.969-6.969-10.78-15.896-11.441-25.009c-3.929-0.568-7.926-0.554-11.85,0.064
	c-2.524,0.397-4.507,2.38-4.904,4.904C-1.412,75.014,2.27,87.758,11.547,97.034c9.276,9.276,22.02,12.959,34.058,11.064
	c2.524-0.397,4.507-2.38,4.904-4.904c0.471-2.994,0.596-6.032,0.377-9.049C42.76,92.97,34.93,89.27,28.678,83.017z"/>
<path style="fill:#58AF5C;" d="M60.762,7.164c-2.319-0.965-5-0.324-6.631,1.586c-7.779,9.111-11.248,21.682-8.248,34.224
	c3.001,12.543,11.784,22.183,22.844,26.786c2.319,0.965,5,0.324,6.631-1.587c7.779-9.111,11.248-21.682,8.248-34.224
	C80.605,21.407,71.822,11.767,60.762,7.164z"/>
<path style="fill:#469B46;" d="M67.446,40.042c-2.254-9.423-0.856-18.862,3.277-26.838c-3-2.497-6.356-4.541-9.961-6.041
	c-2.319-0.965-5-0.324-6.631,1.586c-7.779,9.111-11.248,21.682-8.248,34.224c3.001,12.543,11.784,22.183,22.844,26.786
	c2.319,0.965,5,0.324,6.631-1.586c1.935-2.266,3.602-4.747,4.97-7.387C74.125,55.624,69.468,48.497,67.446,40.042z"/>
<g>
	<path style="fill:#B7E9F7;" d="M341.501,264.406c68.22-7.634,104.809-42.027,104.809-42.027
		c11.914-17.573,18.946-36.709,23.053-54.2l0,0c-24.262,48.705-91.851,77.436-129.221,90.054
		C336.547,259.448,337.73,264.828,341.501,264.406z"/>
	<path style="fill:#B7E9F7;" d="M317.779,332.278c21.179,2.853,53.445,5.73,83.018,2.41c6.512-12.526,9.257-21.553,9.257-21.553
		s-35.172,15.347-92.061,15.928C315.987,329.083,315.79,332.01,317.779,332.278z"/>
</g>
<g>
</g>
<g>
</g>
<g>
</g>
<g>
</g>
<g>
</g>
<g>
</g>
<g>
</g>
<g>
</g>
<g>
</g>
<g>
</g>
<g>
</g>
<g>
</g>
<g>
</g>
<g>
</g>
<g>
</g>
</svg>
